<?xml version="1.0" encoding="utf-8"?>
<!-- Generator: Adobe Illustrator 22.0.0, SVG Export Plug-In . SVG Version: 6.00 Build 0)  -->
<svg version="1.1" id="Layer_1" xmlns="http://www.w3.org/2000/svg" xmlns:xlink="http://www.w3.org/1999/xlink" x="0px" y="0px"
	 viewBox="0 0 2500 405" style="enable-background:new 0 0 2500 405;" xml:space="preserve">
<style type="text/css">
	.st0{fill:#FE7800;}
	.st1{fill:#E20C77;}
</style>
<rect x="1515.2" y="104.2" transform="matrix(0.9159 0.4013 -0.4013 0.9159 195.0683 -605.4117)" class="st0" width="55" height="117.5"/>
<rect x="1546.3" y="131.6" transform="matrix(0.9159 0.4013 -0.4013 0.9159 200.4957 -612.946)" class="st0" width="34.2" height="81"/>
<rect x="1434.6" y="94.6" class="st1" width="71" height="124"/>
<rect x="1478.1" y="84.6" transform="matrix(0.9159 0.4013 -0.4013 0.9159 186.6906 -591.6442)" class="st1" width="55" height="130.5"/>
<g>
	<path d="M244.9,324.6V123.5l-89.3,155.6h-14.1L52.1,123.5v201.1H28V79.7h24.8l95.5,167.6l96.2-167.6h24.5v244.9H244.9z"/>
	<path d="M406.4,79.7h20.3l101.7,244.9h-25.5L471.2,248h-110l-31.4,76.6h-25.9L406.4,79.7z M465.7,229.1L416.4,108l-50,121.1H465.7z
		"/>
	<path d="M563.6,324.6V79.7h103.5c10.6,0,20.3,2.2,29.1,6.7c8.8,4.5,16.5,10.3,22.9,17.6c6.4,7.2,11.4,15.5,15,24.7
		c3.6,9.2,5.3,18.5,5.3,27.9c0,9-1.3,17.5-4,25.7c-2.6,8.2-6.3,15.5-11,22.1c-4.7,6.6-10.4,12.1-17.1,16.6
		c-6.7,4.5-14.1,7.5-22.4,9.1l60,94.5h-27.2l-57.6-90.4h-72.4v90.4H563.6z M587.8,212.8h80c7.1,0,13.6-1.6,19.5-4.7
		c5.9-3.1,10.9-7.3,15-12.6c4.1-5.3,7.4-11.3,9.7-17.9c2.3-6.7,3.4-13.7,3.4-21c0-7.4-1.3-14.4-4-21.2c-2.6-6.8-6.2-12.7-10.7-17.8
		c-4.5-5.1-9.8-9.1-15.9-12.1c-6.1-3-12.5-4.5-19.1-4.5h-77.9V212.8z"/>
	<path d="M788.9,324.6V80.1H813v142.1L947.9,79.7h26.6l-100,107.6l105.2,137.3H953l-93.8-123.1L813,249.4v75.2H788.9z"/>
	<path d="M1175.2,303.2v21.4h-164.5V79.7h161.4v21.4h-137.3v88.3h119.7v20.3h-119.7v93.5H1175.2z"/>
	<path d="M1394.5,101.1h-87.3v223.5h-24.1V101.1h-87.3V79.7h198.7V101.1z"/>
	<path d="M1431.1,324.6V79.7h101.4c10.6,0,20.3,2.2,29.1,6.7c8.8,4.5,16.5,10.3,22.9,17.6c6.4,7.2,11.5,15.5,15.2,24.7
		c3.7,9.2,5.5,18.5,5.5,27.9c0,10.1-1.7,19.8-5.2,29.1c-3.4,9.3-8.3,17.5-14.5,24.7c-6.2,7.1-13.6,12.9-22.2,17.2
		c-8.6,4.4-18.2,6.6-28.8,6.6h-79.3v90.4H1431.1z M1455.2,212.8h78.3c7.1,0,13.6-1.6,19.5-4.7c5.9-3.1,10.9-7.2,15-12.4
		c4.1-5.2,7.4-11.2,9.7-17.9c2.3-6.8,3.4-13.9,3.4-21.2c0-7.6-1.3-14.8-4-21.6c-2.6-6.8-6.2-12.7-10.7-17.8
		c-4.5-5.1-9.8-9-15.9-11.9c-6.1-2.9-12.5-4.3-19.1-4.3h-76.2V212.8z"/>
	<path d="M1645.6,324.6V79.7h24.1v223.5h141.4v21.4H1645.6z"/>
	<path d="M1922.6,79.7h20.3l101.7,244.9h-25.5l-31.7-76.6h-110l-31.4,76.6h-25.9L1922.6,79.7z M1981.9,229.1L1932.6,108l-50,121.1
		H1981.9z"/>
	<path d="M2054.7,200.4c0-14.7,2.6-29.4,7.8-44c5.2-14.6,12.7-27.6,22.6-39.1c9.9-11.5,22.1-20.9,36.6-28.1
		c14.5-7.2,30.9-10.9,49.3-10.9c21.8,0,40.5,4.9,56,14.8c15.5,9.9,27,22.8,34.3,38.6l-19,11.7c-3.9-8-8.7-14.8-14.3-20.3
		c-5.6-5.5-11.7-10-18.1-13.5c-6.4-3.4-13.1-5.9-20-7.4c-6.9-1.5-13.7-2.2-20.3-2.2c-14.7,0-27.7,3-39,9
		c-11.3,6-20.8,13.8-28.5,23.5c-7.7,9.7-13.5,20.5-17.4,32.6c-3.9,12.1-5.9,24.3-5.9,36.7c0,13.6,2.4,26.6,7.1,39
		c4.7,12.4,11.1,23.4,19.3,32.9c8.2,9.5,17.8,17.1,29,22.8c11.2,5.6,23.3,8.5,36.4,8.5c6.9,0,14-0.9,21.2-2.6
		c7.2-1.7,14.3-4.5,21-8.3c6.8-3.8,13-8.5,18.8-14.1c5.7-5.6,10.6-12.5,14.5-20.5l20,10.3c-3.9,9.2-9.4,17.3-16.6,24.3
		c-7.1,7-15.1,12.9-23.8,17.8c-8.7,4.8-18,8.5-27.8,11c-9.8,2.5-19.4,3.8-28.8,3.8c-16.8,0-32.2-3.7-46.2-11
		c-14-7.4-26.1-17-36.2-28.8c-10.1-11.8-18-25.3-23.6-40.4C2057.5,231.4,2054.7,216.1,2054.7,200.4z"/>
	<path d="M2472,303.2v21.4h-164.5V79.7h161.4v21.4h-137.3v88.3h119.7v20.3h-119.7v93.5H2472z"/>
</g>
</svg>
